<svg width="512" height="512" viewBox="0 0 512 512" fill="none" xmlns="http://www.w3.org/2000/svg">
<path d="M475.342 256.419C461.919 192.458 419.63 140.26 362.666 110.977V10.6709C362.666 6.96293 360.749 3.52493 357.593 1.58793C354.447 -0.340067 350.499 -0.517067 347.197 1.14993L284.72 32.6599C277.125 25.6949 267.096 21.3369 256 21.3369C244.904 21.3369 234.875 25.6949 227.28 32.6599L164.802 1.14993C161.5 -0.527067 157.542 -0.360067 154.406 1.58693C151.25 3.52393 149.333 6.96193 149.333 10.6699V110.976C92.369 140.259 50.08 192.455 36.657 256.418C15.969 259.356 0.000976562 277.178 0.000976562 298.668C0.000976562 320.158 15.97 337.981 36.657 340.918C57.574 440.584 148.375 512 255.999 512C363.623 512 454.424 440.584 475.341 340.918C496.029 337.98 511.997 320.158 511.997 298.668C511.997 277.179 496.029 259.356 475.342 256.419ZM296.328 50.6899L341.332 27.9929V100.014L296.328 77.3169C297.724 73.1019 298.665 68.6799 298.665 64.0029C298.665 59.3259 297.724 54.9039 296.328 50.6899ZM255.999 42.6709C267.759 42.6709 277.332 52.2439 277.332 64.0039C277.332 75.7639 267.759 85.3369 255.999 85.3369C244.239 85.3369 234.666 75.7639 234.666 64.0039C234.667 52.2439 244.24 42.6709 255.999 42.6709ZM170.667 27.9939L215.671 50.6909C214.275 54.9059 213.334 59.3279 213.334 64.0049C213.334 68.6819 214.275 73.1039 215.671 77.3189L170.667 100.016V27.9939ZM469.529 320.012L467.394 319.752C461.8 319.127 456.852 323.137 455.946 328.627C440.373 422.522 356.28 490.668 256 490.668C155.72 490.668 71.626 422.522 56.053 328.626C55.199 323.459 49.022 319.959 43.678 319.959C43.334 319.959 43.001 319.969 42.668 320.001C30.908 320.001 21.335 310.428 21.335 298.668C21.335 286.908 30.908 277.335 42.47 277.324L44.605 277.584C49.959 278.032 55.147 274.199 56.053 268.709C69.394 188.269 133.085 126.875 214.103 110.891C210.438 116.511 207.331 122.481 205.333 128.887C200.583 144.137 202.166 160.054 209.781 173.72C217.396 187.387 230.104 197.105 245.583 201.085C249.729 202.148 253.906 202.658 258.041 202.658C280.135 202.658 300.999 188.179 307.791 166.398C311.145 155.627 310.02 144.367 304.635 134.7C299.239 125.023 290.25 118.148 279.322 115.335C273.614 113.877 267.812 117.304 266.332 123.012C264.863 128.72 268.301 134.533 274.009 136.002C279.228 137.335 283.478 140.565 285.999 145.085C288.52 149.595 289.02 154.908 287.416 160.043C282.697 175.251 266.27 184.387 250.895 180.418C241.135 177.908 233.155 171.845 228.405 163.335C223.665 154.825 222.707 144.845 225.707 135.241C229.217 123.96 236.676 114.012 246.717 107.21C246.78 107.167 246.808 107.098 246.869 107.055C249.913 106.927 252.922 106.668 255.998 106.668C356.278 106.668 440.372 174.813 455.944 268.709C456.85 274.199 461.777 278.001 467.392 277.584L469.33 277.334C481.09 277.334 490.663 286.907 490.663 298.667C490.665 310.428 481.092 320.001 469.529 320.012Z" fill="#0063d1"/>
<path d="M212.208 304.562C211.656 303.447 198.27 277.333 170.666 277.333C143.062 277.333 129.676 303.448 129.124 304.562C126.499 309.812 128.624 316.156 133.853 318.812C139.041 321.458 145.488 319.385 148.176 314.166C148.259 314.01 156.353 298.666 170.666 298.666C184.979 298.666 193.073 314.011 193.125 314.104C195 317.844 198.76 320 202.677 320C204.281 320 205.906 319.635 207.437 318.875C212.708 316.239 214.843 309.833 212.208 304.562Z" fill="#0063d1"/>
<path d="M382.872 304.562C382.321 303.448 368.936 277.333 341.331 277.333C313.727 277.333 300.341 303.448 299.789 304.562C297.164 309.812 299.289 316.156 304.518 318.812C309.716 321.458 316.143 319.385 318.841 314.166C318.924 314.01 327.018 298.666 341.331 298.666C355.644 298.666 363.737 314.01 363.789 314.104C365.664 317.844 369.424 320 373.341 320C374.945 320 376.57 319.635 378.101 318.875C383.372 316.239 385.507 309.833 382.872 304.562Z" fill="#0063d1"/>
<path d="M337.635 386.738C333.28 382.895 326.562 383.353 322.655 387.624C322.488 387.801 305.842 405.332 255.999 405.332C206.853 405.332 189.979 388.29 189.365 387.644C185.542 383.29 178.907 382.759 174.459 386.509C169.949 390.311 169.386 397.04 173.178 401.54C175.355 404.113 196.105 426.665 256 426.665C315.896 426.665 336.645 404.113 338.822 401.54C342.563 397.102 342 390.571 337.635 386.738Z" fill="#0063d1"/>
</svg>
