<svg width="512" height="512" viewBox="0 0 512 512" fill="none" xmlns="http://www.w3.org/2000/svg">
<path d="M235.997 411.998C230.477 411.998 225.997 416.478 225.997 421.998C225.997 427.518 230.477 431.998 235.997 431.998C241.517 431.998 245.997 427.518 245.997 421.998C245.997 416.478 241.517 411.998 235.997 411.998Z" fill="#0063d1"/>
<path d="M471.994 226H413.865L469.74 159.964C480.618 164.836 494.061 162.952 503.205 153.783C514.93 142.058 514.93 123.085 503.205 111.361L446.627 54.782C435.009 43.194 416.09 42.946 404.214 54.792C395.184 63.8219 393.133 77.222 398.047 88.245L235.245 226H39.999C17.943 226 -0.000976562 243.944 -0.000976562 266C-0.000976562 282.747 10.423 297.669 26.014 303.388C26.614 377.828 75.399 442.896 145.998 464.523V481.998C145.998 498.54 159.456 511.998 175.998 511.998H335.996C352.538 511.998 365.996 498.54 365.996 481.998V464.523C436.595 442.893 485.38 377.827 485.98 303.387C501.571 297.67 511.995 282.747 511.995 266C511.994 243.944 494.05 226 471.994 226ZM418.347 68.943C422.305 64.996 428.599 65.049 432.494 68.933L489.062 125.503C492.918 129.359 493.026 135.676 489.052 139.65C485.165 143.549 478.821 143.548 474.935 139.65C474.933 139.648 474.932 139.647 474.93 139.645C474.928 139.643 474.927 139.642 474.925 139.64L418.356 83.071C418.355 83.07 418.354 83.07 418.354 83.069C414.459 79.171 414.46 72.83 418.347 68.943ZM410.721 103.719L454.279 147.277L387.666 226H266.205L410.721 103.719ZM345.996 481.999C345.996 487.513 341.51 491.998 335.996 491.998H175.997C170.483 491.998 165.997 487.512 165.997 481.998V469.336C175.865 471.092 185.908 471.999 195.997 471.999H315.996C326.085 471.999 336.128 471.093 345.996 469.336V481.999ZM353.505 447.274C341.317 450.409 328.697 451.999 315.996 451.999H195.997C183.296 451.999 170.676 450.409 158.487 447.274C93.55 430.575 47.813 372.718 46.052 305.899H465.943C464.18 372.718 418.443 430.575 353.505 447.274ZM478.734 284.747C478.65 284.776 478.566 284.806 478.483 284.837C476.337 285.642 474.336 286.001 471.994 286.001H39.999C29.484 286.001 19.999 277.478 19.999 266.001C19.999 254.973 28.971 246.001 39.999 246.001H471.995C483.023 246 491.995 254.973 491.995 266C491.994 274.478 486.665 282.012 478.734 284.747Z" fill="#0063d1"/>
<path d="M195.997 411.999C149.508 411.999 107.83 382.526 92.284 338.66C90.438 333.454 84.72 330.731 79.518 332.575C74.312 334.418 71.588 340.134 73.433 345.34C91.802 397.173 141.056 431.999 195.997 431.999C201.519 431.999 205.997 427.522 205.997 421.999C205.997 416.476 201.519 411.999 195.997 411.999Z" fill="#0063d1"/>
<path d="M243.068 162.929L225.997 145.859V110.002C225.997 49.348 176.651 0.00195312 115.998 0.00195312H75.998C70.476 0.00195312 65.998 4.47895 65.998 10.002V50.002C65.998 110.655 115.344 160.001 175.997 160.001H211.854L228.925 177.072C232.831 180.977 239.161 180.977 243.068 177.072C246.973 173.167 246.973 166.835 243.068 162.929ZM205.997 125.858L123.069 42.93C119.163 39.025 112.833 39.025 108.926 42.93C105.021 46.835 105.021 53.167 108.926 57.073L191.854 140.001H175.997C126.371 140.001 85.998 99.627 85.998 50.002V20.002H115.998C165.624 20.002 205.997 60.376 205.997 110.001V125.858Z" fill="#0063d1"/>
<path d="M275.996 0.00195312C259.454 0.00195312 245.996 13.46 245.996 30.002C245.996 46.544 259.454 60.002 275.996 60.002C292.538 60.002 305.996 46.544 305.996 30.002C305.996 13.46 292.538 0.00195312 275.996 0.00195312ZM275.996 40.002C270.482 40.002 265.996 35.516 265.996 30.002C265.996 24.488 270.482 20.002 275.996 20.002C281.51 20.002 285.996 24.488 285.996 30.002C285.996 35.516 281.51 40.002 275.996 40.002Z" fill="#0063d1"/>
</svg>
