<svg width="512" height="512" viewBox="0 0 512 512" fill="none" xmlns="http://www.w3.org/2000/svg">
<path d="M202.753 320H145.347L164.857 280.979L197.982 297.542C201.951 299.552 206.784 298.844 210.034 295.802C213.284 292.76 214.315 288.01 212.597 283.896L159.264 155.896C157.608 151.927 153.722 149.333 149.42 149.333H10.753C6.43999 149.333 2.54499 151.927 0.898993 155.916C-0.757007 159.906 0.158993 164.489 3.21199 167.541L40.441 204.77L5.05499 275.542C-2.03901 289.74 -1.28901 306.271 7.05499 319.771C9.26299 323.365 11.92 326.563 14.909 329.334L89.565 437.167C103.503 457.302 126.45 469.334 150.95 469.334H202.752C208.648 469.334 213.419 464.563 213.419 458.667V330.667C213.419 324.771 208.649 320 202.753 320ZM30.867 314.906L29.909 314.125C28.096 312.542 26.503 310.677 25.201 308.562C20.763 301.395 20.368 292.614 24.138 285.083L62.961 207.437C65.013 203.333 64.211 198.374 60.961 195.124L36.503 170.666H142.305L181.878 265.635L164.857 257.125C159.576 254.5 153.19 256.625 150.544 261.896L121.492 320H45.722C40.222 320 35.034 318.177 30.867 314.906ZM192.086 448H150.951C133.451 448 117.066 439.406 107.107 425.021L49.159 341.333H192.086V448Z" fill="#0063d1"/>
<path d="M506.878 275.094L457.388 186.781C454.513 181.646 448.034 179.791 442.909 182.677L346.909 236.01C344.346 237.427 342.492 239.833 341.753 242.666C341.024 245.499 341.493 248.51 343.045 250.989L386.17 320H341.42V288C341.42 283.375 338.441 279.281 334.055 277.854C329.67 276.416 324.847 277.989 322.128 281.729L236.795 399.062C233.847 403.114 234.118 408.677 237.451 412.416L322.784 508.416C324.847 510.739 327.763 511.999 330.753 511.999C332.024 511.999 333.305 511.77 334.545 511.301C338.68 509.728 341.42 505.759 341.42 501.332V469.332H361.222C385.722 469.332 408.67 457.301 422.607 437.165C422.607 437.165 502.949 323.276 505.117 319.769C513.461 306.271 514.211 289.74 506.878 275.094ZM405.065 425.021C395.107 439.406 378.722 448 361.222 448H330.753C324.857 448 320.086 452.771 320.086 458.667V473.282L259.096 404.667L320.086 320.802V330.667C320.086 336.563 324.857 341.334 330.753 341.334H463.007L405.065 425.021ZM486.972 308.563C486.394 309.498 481.623 314.447 481.623 314.447C477.39 317.917 472.14 320 466.451 320H411.336L367.086 249.208L443.982 206.489L488.034 285.083C491.805 292.615 491.409 301.396 486.972 308.563Z" fill="#0063d1"/>
<path d="M293.69 134.604L261.982 150.458C257.878 152.51 255.544 156.958 256.19 161.51C256.846 166.052 260.325 169.677 264.846 170.489L382.179 191.822C382.814 191.947 383.46 191.999 384.085 191.999C388.335 191.999 392.252 189.457 393.929 185.436L447.262 57.436C448.981 53.321 447.95 48.571 444.699 45.53C441.439 42.478 436.626 41.801 432.647 43.79L398.407 60.915L373.628 23.75C363.711 8.875 347.128 0 329.253 0C329.253 0 195.274 0.427 191.42 0.344C168.472 -0.385 147.097 10.198 133.233 28.698L87.555 89.604C85.69 92.073 85.003 95.239 85.659 98.26C86.315 101.291 88.263 103.885 90.982 105.364L208.315 169.364C213.075 171.999 218.992 170.593 222.096 166.197L269.648 99.634L293.69 134.604ZM329.253 21.333C339.972 21.333 349.93 26.656 355.878 35.583L385.878 80.583C388.878 85.062 394.711 86.614 399.524 84.208L416.545 75.698L377.545 169.302L300.149 155.229L314.191 148.208C316.951 146.823 318.983 144.323 319.754 141.333C320.525 138.343 319.962 135.166 318.212 132.625L248.399 31.073C245.982 27.552 243.295 24.302 240.389 21.333H329.253ZM210.232 146.115L112.013 92.542L150.294 41.49C159.992 28.573 174.534 21.073 190.981 21.677C207.137 22.01 221.658 29.833 230.814 43.156L256.783 80.937L210.232 146.115Z" fill="#0063d1"/>
</svg>
