<svg width="454" height="512" viewBox="0 0 454 512" fill="none" xmlns="http://www.w3.org/2000/svg">
<path d="M395.756 110.207V84.5076H403.604C419.178 84.5076 431.846 71.8358 431.846 56.2616V28.2421C431.846 12.6718 419.178 0 403.604 0H141.761C126.187 0 113.519 12.6718 113.519 28.2421V56.2616C113.519 71.8358 126.187 84.5076 141.761 84.5076H149.605V110.207C116.976 115.058 91.8625 143.25 91.8625 177.207V207.261H26.7299C11.9916 207.261 -0.000549316 219.253 -0.000549316 233.992V258.441C-0.000549316 271.296 9.12053 282.058 21.2299 284.601V478.835C21.2299 497.12 36.1088 511.999 54.3978 511.999H385.757C423.112 511.999 453.499 481.612 453.499 444.261V177.203C453.499 143.25 428.385 115.054 395.756 110.207ZM133.519 56.2616V28.2421C133.519 23.6992 137.214 20 141.761 20H403.604C408.151 20 411.846 23.6992 411.846 28.2421V56.2616C411.846 60.8085 408.151 64.5077 403.604 64.5077H141.761C137.214 64.5077 133.519 60.8085 133.519 56.2616ZM375.757 84.5076V109.465H169.605V84.5076H375.757ZM19.9994 233.988C19.9994 230.343 23.0814 227.261 26.7299 227.261H187.273C190.917 227.261 193.999 230.343 193.999 233.988V258.441C193.999 262.089 190.917 265.171 187.273 265.171H26.7299C23.0189 265.171 19.9994 262.152 19.9994 258.441V233.988ZM172.769 412.851H92.3586C89.4055 412.851 86.9133 410.359 86.9133 407.405V351.429C86.9133 348.476 89.4094 345.984 92.3586 345.984H172.769V412.851ZM41.2298 478.835V285.171H172.769V325.984H92.3586C78.3274 325.984 66.9134 337.398 66.9134 351.425V407.405C66.9134 421.437 78.3274 432.851 92.3586 432.851H172.769V478.835C172.769 486.093 166.862 491.999 159.605 491.999H54.3978C47.1361 491.999 41.2298 486.093 41.2298 478.835ZM385.757 491.999H190.038C191.792 487.96 192.769 483.511 192.769 478.835V284.601C204.878 282.058 213.999 271.296 213.999 258.441V233.988C213.999 219.25 202.011 207.261 187.273 207.261H111.866V177.203C111.866 150.879 133.28 129.465 159.609 129.465H385.76C411.96 129.465 433.288 150.679 433.491 176.836H314.194C287.343 176.836 265.503 198.679 265.503 225.527V270.73C265.503 276.253 269.979 280.73 275.503 280.73C281.022 280.73 285.503 276.253 285.503 270.73V225.527C285.503 209.707 298.374 196.836 314.194 196.836H433.499V424.628H314.194C298.374 424.628 285.503 411.757 285.503 395.937V350.73C285.503 345.21 281.022 340.73 275.503 340.73C269.979 340.73 265.503 345.21 265.503 350.73V395.937C265.503 422.784 287.347 444.628 314.194 444.628H433.491C433.288 470.78 411.96 491.999 385.757 491.999Z" fill="#0063d1"/>
<path fill-rule="evenodd" clip-rule="evenodd" d="M275.499 320.73C281.011 320.73 285.503 316.238 285.503 310.73C285.503 305.222 281.011 300.73 275.499 300.73C269.991 300.73 265.499 305.222 265.499 310.73C265.499 316.238 269.995 320.73 275.499 320.73Z" fill="#0063d1"/>
</svg>
