<svg width="482" height="512" viewBox="0 0 482 512" fill="none" xmlns="http://www.w3.org/2000/svg">
<path d="M110.696 125.994C105.176 125.994 100.696 130.474 100.696 135.994C100.696 141.514 105.176 145.994 110.696 145.994C116.216 145.994 120.696 141.514 120.696 135.994C120.696 130.474 116.216 125.994 110.696 125.994Z" fill="#0063d1"/>
<path d="M200.691 312.984H170.693V282.986C170.693 277.464 166.215 272.986 160.693 272.986C155.171 272.986 150.694 277.464 150.694 282.986V312.984H120.696C115.174 312.984 110.696 317.462 110.696 322.983C110.696 328.504 115.174 332.983 120.696 332.983H150.694V362.981C150.694 368.503 155.172 372.981 160.693 372.981C166.214 372.981 170.693 368.503 170.693 362.981V332.983H200.691C206.213 332.983 210.691 328.505 210.691 322.983C210.691 317.461 206.214 312.984 200.691 312.984Z" fill="#0063d1"/>
<path d="M470.578 321.984C448.473 283.698 399.597 270.595 361.304 292.705L320.686 316.155V229.319C320.686 218.584 317.136 207.931 310.687 199.321L260.69 132.66V104.274C272.328 100.146 280.689 89.032 280.689 75.995V29.998C280.687 13.457 267.23 0 250.689 0H70.6979C54.1569 0 40.6989 13.457 40.6989 29.998V75.996C40.6989 89.031 49.0599 100.147 60.6979 104.275V132.661L10.6969 199.326C4.25093 207.932 0.700928 218.584 0.700928 229.319V422.979C0.700928 450.548 23.1299 472.976 50.6979 472.976H211.4C233.821 510.559 282.167 523.137 320.064 501.255L441.3 431.258C479.255 409.34 492.794 360.479 470.578 321.984ZM60.6979 29.998C60.6979 24.484 65.1839 19.998 70.6969 19.998H250.688C256.202 19.998 260.688 24.484 260.688 29.998V75.996C260.688 81.51 256.202 85.995 250.688 85.995H70.6979C65.1839 85.995 60.6989 81.509 60.6989 75.996L60.6979 29.998ZM26.7009 211.319L78.6969 141.993C79.9949 140.263 80.6969 138.157 80.6969 135.993V105.995H240.689V125.994H150.694C145.172 125.994 140.694 130.472 140.694 135.994C140.694 141.516 145.172 145.994 150.694 145.994H245.689L294.682 211.316C297.884 215.591 299.873 220.706 300.474 225.99H20.9129C21.5129 220.705 23.5019 215.59 26.7009 211.319ZM50.6989 452.977C34.1579 452.977 20.7009 439.52 20.7009 422.979V412.88H202.376C199.205 425.845 199.226 439.693 202.857 452.978H50.6989V452.977ZM210.219 392.98H20.6999V245.987H300.686V327.7L240.067 362.702C227.428 370.003 217.212 380.396 210.219 392.98ZM310.066 483.935C281.369 500.506 244.699 490.706 228.117 461.989C211.456 432.995 221.553 396.491 250.069 380.02L304.346 348.682L364.343 452.597L310.066 483.935ZM431.3 413.939L381.663 442.598L321.665 338.681L371.303 310.025C400.019 293.447 436.676 303.264 453.258 331.982C469.913 360.844 459.785 397.49 431.3 413.939Z" fill="#0063d1"/>
</svg>
