<svg width="384" height="513" viewBox="0 0 384 513" fill="none" xmlns="http://www.w3.org/2000/svg">
<path d="M358.243 430.198C374.817 403.346 383.999 373.081 383.999 341.335C383.999 267.383 337.335 203.232 267.625 179.852C258.246 164.7 242.849 153.76 224.685 150.482L234.665 130.522C237.3 125.251 235.165 118.845 229.894 116.21L239.436 97.127C244.707 99.742 251.092 97.627 253.749 92.356L276.207 47.439C278.842 42.168 276.707 35.762 271.436 33.126L207.436 1.126C202.155 -1.499 195.769 0.616004 193.123 5.897L170.665 50.814C168.03 56.085 170.165 62.491 175.436 65.127L165.894 84.21C160.634 81.595 154.217 83.71 151.581 88.981L65.123 261.898C62.488 267.169 64.623 273.575 69.894 276.211L133.894 308.211C135.425 308.971 137.05 309.336 138.654 309.336C142.571 309.336 146.331 307.18 148.206 303.44L169.897 260.057C181.329 270.69 196.523 277.336 213.331 277.336C227.335 277.336 240.194 272.686 250.742 265.029C279.962 279.318 298.664 308.519 298.664 341.336C298.664 388.388 260.383 426.669 213.331 426.669H127.998V405.336H159.998C165.894 405.336 170.665 400.565 170.665 394.669C170.665 388.773 165.894 384.002 159.998 384.002H10.666C4.77002 384.002 -0.000976562 388.773 -0.000976562 394.669C-0.000976562 400.565 4.77002 405.336 10.666 405.336H42.666V426.669C19.135 426.669 -0.000976562 445.804 -0.000976562 469.336V501.336C-0.000976562 507.232 4.77002 512.003 10.666 512.003H373.333C379.229 512.003 384 507.232 384 501.336V469.336C384 451.815 373.375 436.762 358.243 430.198ZM149.333 213.335C149.333 223.166 151.743 232.375 155.72 240.706L133.896 284.356L88.979 261.898L165.896 108.065C171.177 110.68 177.563 108.565 180.209 103.294L199.292 65.127C201.927 59.856 199.792 53.45 194.521 50.814L207.438 24.981L252.355 47.439L239.438 73.272C234.167 70.668 227.761 72.772 225.125 78.043L206.042 116.21C203.407 121.481 205.542 127.887 210.813 130.522L200.771 150.604C171.479 156.461 149.333 182.345 149.333 213.335ZM213.333 256.001C189.802 256.001 170.666 236.866 170.666 213.334C170.666 189.802 189.801 170.667 213.333 170.667C236.865 170.667 256 189.802 256 213.334C256 236.866 236.864 256.001 213.333 256.001ZM320 341.335C320 302.667 299.34 267.882 266.417 249.043C273.305 238.836 277.334 226.548 277.334 213.335C277.334 210.917 276.883 208.621 276.62 206.272C328.762 230.53 362.667 282.367 362.667 341.335C362.667 372.108 353.034 401.414 335.295 426.668H276.674C302.811 407.207 320 376.349 320 341.335ZM64 405.335H106.667V426.668H64V405.335ZM362.666 490.668H21.333V469.335C21.333 457.575 30.906 448.002 42.666 448.002H341.333C353.093 448.002 362.666 457.575 362.666 469.335V490.668Z" fill="#0063d1"/>
</svg>
